<svg width="64" height="64" viewBox="0 0 32 32" fill="none" xmlns="http://www.w3.org/2000/svg">
  <defs>
    <linearGradient id="sprout" x1="0" y1="32" x2="16" y2="0" gradientUnits="userSpaceOnUse">
      <stop offset="0%" stopColor="#4f46e5"/>
      <stop offset="100%" stopColor="#06b6d4"/>
    </linearGradient>
  </defs>
  <rect width="32" height="32" rx="7" fill="#0f172a"/>
  <g stroke="#4f46e5" stroke-width="1.6" stroke-linecap="round" opacity="0.55">
    <path d="M16 22 v-6"/>
    <path d="M16 19 q-3 -0.5 -5 -1.5"/>
    <path d="M16 20 q3 -0.5 5 -1"/>
  </g>
  <line x1="10" y1="24" x2="22" y2="24" stroke="#4f46e5" stroke-width="1.3" stroke-linecap="round" opacity="0.35"/>
  <path d="M16 22 C16 17 16 15 16 10" stroke="url(#sprout)" stroke-width="2.4" stroke-linecap="round"/>
  <circle cx="16" cy="16" r="1.1" fill="#4f46e5" opacity="0.85"/>
  <path d="M16 10 C13 7 11 8 9.5 11 C13 10.5 15 11 16 12.5" fill="url(#sprout)" stroke="#4f46e5" stroke-width="0.8" stroke-linejoin="round"/>
  <path d="M16 8.5 C18.5 5.5 21.5 5.5 23.5 8 C21 9 18.5 9 16 11" fill="url(#sprout)" stroke="#4f46e5" stroke-width="0.8" stroke-linejoin="round"/>
  <circle cx="16" cy="7" r="1.6" fill="#4f46e5"/>
  <circle cx="17.4" cy="5.6" r="0.9" fill="#06b6d4" opacity="0.9"/>
</svg>